<svg fill="none" height="18" viewBox="0 0 100 18" width="300" xmlns="http://www.w3.org/2000/svg"><g fill="#ef3340"><path d="m56.6508 0c-.9109 0-1.5941.283912-2.3343 1.36278l-9.2236 12.49212-3.53-12.20821c-.3985-1.249214-1.1956-1.64669-1.9358-1.64669-1.1387 0-1.708.454259-2.2774 1.53312l-8.1418 16.23978h4.5549l5.5227-11.18615 3.4161 11.18615h3.8147l8.3126-11.12937-.0569 11.12937h3.8716l-.0569-15.61517c0-1.533124-.968-2.1009477-1.9359-2.15773z"/><path d="m23.7421 2.8959-3.6439 14.877h4.1563l3.587-14.877z"/><path d="m8.99581 9.653h-2.90371l1.08178-4.48581h3.07452c1.6511 0 2.5052.73817 2.3344 2.15773-.1709 1.47634-1.5942 2.32808-3.58699 2.32808zm7.68629-2.49843c.2277-1.98738-.911-4.25867-5.0673-4.25867h-8.02786l-3.58694 14.877h4.09936l1.36645-5.5647h2.10661l3.64388 5.5647h4.4979l-4.0994-5.9054c3.6439-.9085 4.8396-2.78233 5.0673-4.71293z"/><path d="m69.3475 12.265 3.6438-5.45112 1.3665 5.45112zm6.3767 5.5079h3.9286l-3.7577-13.68457c-.5125-1.58991-1.4804-1.98738-2.5052-1.87382-.6263.05678-1.3095.3407-1.9928 1.24921l-9.8498 14.36598h4.0424l1.9928-3.0095h7.3446z"/><path d="m92.1786 15.0473c-3.3592-.0568-5.2381-1.9306-4.9534-4.3154.3416-3.23663 3.3023-5.16723 7.4586-5.16723 1.1956 0 2.7898.11356 4.2132.45426l.7402-3.00947c-1.1387-.28391-3.1315-.51104-4.441-.51104-7.06 0-11.5579 3.2366-12.1273 8.11988-.5124 4.3155 2.5621 7.3817 9.1097 7.3817 1.3095 0 2.4482-.1136 4.0994-.3975l.7971-3.2366c-1.6512.4543-2.9038.6814-4.8965.6814z"/></g></svg>